<?xml version="1.0" encoding="UTF-8"?>
<svg width="153px" height="34px" viewBox="0 0 153 34" version="1.1" xmlns="http://www.w3.org/2000/svg" xmlns:xlink="http://www.w3.org/1999/xlink">
    <!-- Generator: Sketch 61.1 (89650) - https://sketch.com -->
    <title>logo-dark</title>
    <desc>Created with Sketch.</desc>
    <defs>
        <polygon id="path-1" points="0 34.0540541 152.0565 34.0540541 152.0565 0 0 0"></polygon>
    </defs>
    <g id="Home" stroke="none" stroke-width="1" fill="none" fill-rule="evenodd">
        <g id="logo-dark" transform="translate(0.000000, -1.000000)">
            <polygon id="Fill-1" fill="#283234" points="16.9267111 11.2544865 19.4030444 11.2544865 21.8614333 20.5994865 21.8963778 20.5994865 24.6957111 11.2544865 27.0284889 11.2544865 29.7730444 20.5994865 29.8089333 20.5994865 32.3211556 11.2544865 34.7247667 11.2544865 31.0112111 23.9774595 28.8219889 23.9774595 25.8441556 14.4357027 25.8082667 14.4357027 22.8294889 23.9774595 20.6412111 23.9774595"></polygon>
            <path d="M44.5779667,19.1255135 L42.6220222,13.9502432 L40.6301889,19.1255135 L44.5779667,19.1255135 Z M41.7068556,11.2542973 L43.6628,11.2542973 L49.1349111,23.9772703 L46.5518556,23.9772703 L45.3675222,21.0665946 L39.8595222,21.0665946 L38.7110778,23.9772703 L36.1809111,23.9772703 L41.7068556,11.2542973 Z" id="Fill-2" fill="#283234"></path>
            <g id="Group-17" transform="translate(0.000000, 0.945473)">
                <path d="M56.5652333,15.7902973 C57.8392889,15.7902973 59.2927889,15.4847568 59.2927889,13.9390811 C59.2927889,12.5561081 57.9290111,12.2136757 56.7626222,12.2136757 L54.7169556,12.2136757 L54.7169556,15.7902973 L56.5652333,15.7902973 Z M52.4569,10.3094865 L56.8702889,10.3094865 C59.2569,10.3094865 61.5528444,11.2611081 61.5528444,13.9570541 C61.5528444,15.7902973 60.4223444,16.9935405 58.6467889,17.3889459 L62.0373444,23.0324595 L59.3107333,23.0324595 L56.3678444,17.6415135 L54.7169556,17.6415135 L54.7169556,23.0324595 L52.4569,23.0324595 L52.4569,10.3094865 Z" id="Fill-3" fill="#283234"></path>
                <path d="M70.0415111,21.0553378 C72.3742889,21.0553378 74.9932333,20.1027703 74.9932333,16.6708784 C74.9932333,13.0223649 72.3742889,12.249527 70.0415111,12.249527 L68.1573444,12.249527 L68.1573444,21.0553378 L70.0415111,21.0553378 Z M65.8972889,10.3093919 L70.4004,10.3093919 C73.7201222,10.3093919 77.4157333,11.8910135 77.4157333,16.6708784 C77.4157333,21.1272297 73.7201222,23.0323649 70.4004,23.0323649 L65.8972889,23.0323649 L65.8972889,10.3093919 Z" id="Fill-5" fill="#283234"></path>
                <path d="M85.5990611,15.7902973 C86.8731167,15.7902973 88.3266167,15.4847568 88.3266167,13.9390811 C88.3266167,12.5561081 86.9628389,12.2136757 85.79645,12.2136757 L83.7507833,12.2136757 L83.7507833,15.7902973 L85.5990611,15.7902973 Z M81.4907278,10.3094865 L85.9041167,10.3094865 C88.2907278,10.3094865 90.5866722,11.2611081 90.5866722,13.9570541 C90.5866722,15.7902973 89.4561722,16.9935405 87.6806167,17.3889459 L91.0711722,23.0324595 L88.3445611,23.0324595 L85.4016722,17.6415135 L83.7507833,17.6415135 L83.7507833,23.0324595 L81.4907278,23.0324595 L81.4907278,10.3094865 Z" id="Fill-7" fill="#283234"></path>
                <path d="M100.869217,21.325027 C103.471161,21.325027 105.246717,19.348 105.246717,16.635027 C105.246717,14.010973 103.506106,11.980973 100.869217,11.980973 C98.2502722,11.980973 96.5096611,14.010973 96.5096611,16.635027 C96.5096611,19.348 98.2861611,21.325027 100.869217,21.325027 M100.851272,9.98597297 C104.816994,9.98597297 107.705106,12.5551622 107.705106,16.635027 C107.705106,20.6061081 104.816994,23.355027 100.851272,23.355027 C96.9403278,23.355027 94.0512722,20.6061081 94.0512722,16.635027 C94.0512722,12.5551622 96.9403278,9.98597297 100.851272,9.98597297" id="Fill-9" fill="#283234"></path>
                <path d="M113.6824,21.1273243 L115.709178,21.1273243 C116.875567,21.1273243 118.5444,20.8936757 118.5444,19.2221892 C118.5444,17.8931351 117.629233,17.4248919 115.799844,17.4248919 L113.6824,17.4248919 L113.6824,21.1273243 Z M113.6824,15.4847568 L115.691233,15.4847568 C117.198567,15.4847568 118.006067,14.8557027 118.006067,13.7593514 C118.006067,12.6270541 117.198567,12.1786757 115.493844,12.1786757 L113.6824,12.1786757 L113.6824,15.4847568 Z M111.4214,10.3085405 L116.374067,10.3085405 C118.293178,10.3085405 120.267067,11.1901622 120.267067,13.5077297 C120.267067,14.9455676 119.369844,15.8981351 118.0599,16.2935405 L118.0599,16.3294865 C119.656956,16.5451622 120.8054,17.6225946 120.8054,19.330027 C120.8054,22.0978649 118.400844,23.0324595 115.997233,23.0324595 L111.4214,23.0324595 L111.4214,10.3085405 Z" id="Fill-11" fill="#283234"></path>
                <polygon id="Fill-13" fill="#283234" points="124.646833 10.3090135 133.060889 10.3090135 133.060889 12.2860405 126.907833 12.2860405 126.907833 15.5202297 132.737889 15.5202297 132.737889 17.4253649 126.907833 17.4253649 126.907833 21.0199595 133.383889 21.0199595 133.383889 23.0319865 124.646833 23.0319865"></polygon>
                <mask id="mask-2" fill="white">
                    <use xlink:href="#path-1"></use>
                </mask>
                <g id="Clip-16"></g>
                <path d="M0.944444444,33.1081081 L151.112056,33.1081081 L151.112056,0.945945946 L0.944444444,0.945945946 L0.944444444,33.1081081 Z M0,34.0540541 L152.0565,34.0540541 L152.0565,0 L0,0 L0,34.0540541 Z" id="Fill-15" fill="#283234" mask="url(#mask-2)"></path>
            </g>
        </g>
    </g>
</svg>