<svg width="170" height="19" viewBox="0 0 170 19" fill="none" xmlns="http://www.w3.org/2000/svg">
<mask id="mask0" mask-type="alpha" maskUnits="userSpaceOnUse" x="0" y="0" width="18" height="19">
<path fill-rule="evenodd" clip-rule="evenodd" d="M0 0H17.8066V18.8993H0V0Z" fill="white"/>
</mask>
<g mask="url(#mask0)">
<path fill-rule="evenodd" clip-rule="evenodd" d="M15.0833 9.44968C15.0833 5.21539 12.8837 2.37542 8.90337 2.37542C5.00161 2.37542 2.72344 5.21539 2.72344 9.44968C2.72344 13.6838 4.92304 16.5239 8.90337 16.5239C12.8837 16.5239 15.0833 13.6838 15.0833 9.44968ZM-6.10352e-05 9.44968C-6.10352e-05 4.02779 3.37801 0 8.90337 0C14.4287 0 17.8066 4.02779 17.8066 9.44968C17.8066 14.8716 14.4287 18.8994 8.90337 18.8994C3.37801 18.8994 -6.10352e-05 14.8716 -6.10352e-05 9.44968Z" fill="#0F4C6F"/>
</g>
<path fill-rule="evenodd" clip-rule="evenodd" d="M27.9988 6.43024L27.9434 6.97955C27.9251 7.3091 27.7407 7.47388 27.409 7.47388L21.8798 7.49228V11.6302H26.9665C27.2983 11.6302 27.4826 11.8134 27.4826 12.143V12.7105C27.4826 13.0402 27.2983 13.205 26.9665 13.205H21.8798V18.3866C21.8798 18.7161 21.6956 18.8993 21.3637 18.8993H20.5159C20.1842 18.8993 20 18.7161 20 18.3866V6.96136V6.41205C20 6.08229 20.1842 5.89932 20.5159 5.89932H27.5012C27.8329 5.89932 28.0171 6.10069 27.9988 6.43024Z" fill="#0F4C6F"/>
<path fill-rule="evenodd" clip-rule="evenodd" d="M37.9988 6.43024L37.9434 6.97955C37.9251 7.3091 37.7407 7.47388 37.409 7.47388L31.8798 7.49228V11.6302H36.9665C37.2983 11.6302 37.4826 11.8134 37.4826 12.143V12.7105C37.4826 13.0402 37.2983 13.205 36.9665 13.205H31.8798V18.3866C31.8798 18.7161 31.6956 18.8993 31.3637 18.8993H30.5159C30.1842 18.8993 30 18.7161 30 18.3866V6.96136V6.41205C30 6.08229 30.1842 5.89932 30.5159 5.89932H37.5012C37.8329 5.89932 38.0171 6.10069 37.9988 6.43024Z" fill="#0F4C6F"/>
<path fill-rule="evenodd" clip-rule="evenodd" d="M40 18.3866V6.41205C40 6.0825 40.1961 5.89932 40.549 5.89932H41.451C41.8039 5.89932 42 6.0825 42 6.41205V18.3866C42 18.7164 41.8039 18.8993 41.451 18.8993H40.549C40.1961 18.8993 40 18.7164 40 18.3866Z" fill="#0F4C6F"/>
<path fill-rule="evenodd" clip-rule="evenodd" d="M44 12.4703C44 8.15469 46.44 5.89932 49.9181 5.89932C53.0866 5.89932 54.762 7.35558 54.9986 9.45112C55.0169 9.75312 54.8528 9.93059 54.5251 9.98393L53.6874 10.0904C53.3597 10.1259 53.1777 9.98393 53.1413 9.66428C52.8864 8.22568 51.8301 7.4799 49.8818 7.4799C47.5873 7.4799 45.8937 9.04264 45.8937 12.3991C45.8937 15.5071 47.7148 17.2297 50.61 17.2297C52.2854 17.2297 53.2322 16.7681 53.979 16.4129C54.2701 16.2708 54.507 16.3596 54.5979 16.7326L54.762 17.3721C54.8164 17.656 54.762 17.8516 54.507 18.0114C53.724 18.4375 52.3945 18.8993 50.3551 18.8993C46.4947 18.8993 44 16.5728 44 12.4703Z" fill="#0F4C6F"/>
<path fill-rule="evenodd" clip-rule="evenodd" d="M65 17.7641V18.3866C65 18.7164 64.8425 18.8993 64.5274 18.8993H58.6805H57.4902C57.1751 18.8993 57 18.7164 57 18.3866V6.54023V6.41205C57 6.0825 57.1751 5.89932 57.4902 5.89932H64.51C64.8251 5.89932 64.9826 6.10069 64.965 6.43024L64.93 7.05295C64.9124 7.3825 64.7199 7.54727 64.4224 7.54727H58.7857V11.6302H63.9672C64.2823 11.6302 64.4574 11.8134 64.4574 12.143V12.7105C64.4574 13.0402 64.2823 13.205 63.9672 13.205H58.7857V17.2514H64.5274C64.8425 17.2514 65 17.4345 65 17.7641Z" fill="#0F4C6F"/>
<path fill-rule="evenodd" clip-rule="evenodd" d="M80 1.6093V2.54726C80 3.00363 79.7446 3.23182 79.2848 3.23182H74.3028V18.1893C74.3028 18.6459 74.0475 18.8993 73.5876 18.8993H72.4124C71.9525 18.8993 71.6972 18.6459 71.6972 18.1893V3.23182H66.7152C66.2556 3.23182 66 3.00363 66 2.54726V1.78664C66 1.35569 66.2299 1.07687 66.6898 1.05145C67.916 0.950167 69.3977 0.899323 70.7262 0.899323H74.3028H79.2848C79.7446 0.899323 80 1.15293 80 1.6093Z" fill="#0F4C6F"/>
<path fill-rule="evenodd" clip-rule="evenodd" d="M92.1648 12.3992C92.1648 9.48676 90.6825 7.53322 88 7.53322C85.3705 7.53322 83.8352 9.48676 83.8352 12.3992C83.8352 15.3117 85.3177 17.2654 88 17.2654C90.6825 17.2654 92.1648 15.3117 92.1648 12.3992ZM82 12.3992C82 8.66981 84.2764 5.89932 88 5.89932C91.7236 5.89932 94 8.66981 94 12.3992C94 16.1288 91.7236 18.8993 88 18.8993C84.2764 18.8993 82 16.1288 82 12.3992Z" fill="#0F4C6F"/>
<path fill-rule="evenodd" clip-rule="evenodd" d="M107 12.79V13.3759V18.1888C107 18.5087 106.818 18.6862 106.489 18.6862H106.033C105.723 18.6862 105.559 18.5263 105.523 18.2243L105.45 17.1056C104.52 18.2422 102.988 18.8993 101.146 18.8993C97.4072 18.8993 95 16.4841 95 12.3993C95 8.10135 97.5166 5.89932 101.328 5.89932C104.173 5.89932 105.869 7.05378 106.344 8.9895C106.416 9.2913 106.252 9.50446 105.942 9.53995L105.067 9.71763C104.757 9.77097 104.574 9.62879 104.465 9.34464C104.119 8.17254 103.024 7.49775 101.328 7.49775C98.5744 7.49775 96.8968 9.20267 96.8968 12.3993C96.8968 15.5071 98.5928 17.3009 101.365 17.3009C103.572 17.3009 105.286 16.2355 105.286 14.0864V13.3759H101.967C101.638 13.3759 101.474 13.1984 101.474 12.879V12.4348C101.474 12.1152 101.638 11.9375 101.967 11.9375H106.088C106.727 11.9375 107 12.2928 107 12.79Z" fill="#0F4C6F"/>
<path fill-rule="evenodd" clip-rule="evenodd" d="M118 17.7641V18.3866C118 18.7164 117.842 18.8993 117.527 18.8993H111.68H110.49C110.175 18.8993 110 18.7164 110 18.3866V6.54023V6.41205C110 6.0825 110.175 5.89932 110.49 5.89932H117.51C117.825 5.89932 117.982 6.10069 117.965 6.43024L117.93 7.05295C117.912 7.3825 117.72 7.54727 117.422 7.54727H111.786V11.6302H116.967C117.282 11.6302 117.457 11.8134 117.457 12.143V12.7105C117.457 13.0402 117.282 13.205 116.967 13.205H111.786V17.2514H117.527C117.842 17.2514 118 17.4345 118 17.7641Z" fill="#0F4C6F"/>
<path fill-rule="evenodd" clip-rule="evenodd" d="M129 6.41205V7.08954C129 7.41909 128.817 7.58387 128.489 7.58387H124.931V18.3866C124.931 18.7164 124.748 18.8993 124.42 18.8993H123.58C123.252 18.8993 123.069 18.7164 123.069 18.3866V7.58387H119.511C119.183 7.58387 119 7.41909 119 7.08954V6.54023C119 6.22887 119.164 6.0275 119.493 6.00931C120.369 5.93613 121.427 5.89932 122.376 5.89932H124.931H128.489C128.817 5.89932 129 6.0825 129 6.41205Z" fill="#0F4C6F"/>
<path fill-rule="evenodd" clip-rule="evenodd" d="M140.999 17.8131V18.3381C140.98 18.6458 140.815 18.8451 140.502 18.8811C140.281 18.8993 140.023 18.8993 139.729 18.8993C138.606 18.8993 137.833 18.6098 137.833 17.2697V13.3408H130.877V18.2476C130.877 18.5737 130.693 18.7546 130.362 18.7546H129.515C129.184 18.7546 129 18.5737 129 18.2476V6.40634C129 6.08046 129.184 5.89932 129.515 5.89932H130.362C130.693 5.89932 130.877 6.08046 130.877 6.40634V11.6388H137.833V6.40634C137.833 6.08046 137.999 5.89932 138.33 5.89932H139.195C139.526 5.89932 139.692 6.08046 139.692 6.40634V17.1794C139.858 17.2158 140.116 17.2517 140.373 17.2879C140.815 17.3423 141.017 17.487 140.999 17.8131Z" fill="#0F4C6F"/>
<path fill-rule="evenodd" clip-rule="evenodd" d="M151 17.7641V18.3866C151 18.7164 150.842 18.8993 150.527 18.8993H144.68H143.49C143.175 18.8993 143 18.7164 143 18.3866V6.54023V6.41205C143 6.0825 143.175 5.89932 143.49 5.89932H150.51C150.825 5.89932 150.982 6.10069 150.965 6.43024L150.93 7.05295C150.912 7.3825 150.72 7.54727 150.422 7.54727H144.786V11.6302H149.967C150.282 11.6302 150.457 11.8134 150.457 12.143V12.7105C150.457 13.0402 150.282 13.205 149.967 13.205H144.786V17.2514H150.527C150.842 17.2514 151 17.4345 151 17.7641Z" fill="#0F4C6F"/>
<path fill-rule="evenodd" clip-rule="evenodd" d="M156.207 12.2565H158.699C160.371 12.2565 161.469 11.7028 161.469 9.95278C161.469 8.23848 160.424 7.50635 158.263 7.50635C157.444 7.50635 156.729 7.59567 156.207 7.70274V12.2565ZM163.996 17.8458L163.944 18.3815C163.909 18.6672 163.769 18.8457 163.491 18.8814C163.334 18.8993 163.16 18.8993 163.003 18.8993C162.114 18.8993 161.504 18.7209 160.842 17.6494L158.472 13.8278H156.207V18.2565C156.207 18.5781 156.032 18.7566 155.719 18.7566H154.917C154.586 18.7566 154.429 18.5781 154.429 18.2565V7.70274H153.471C153.157 7.70274 153 7.5243 153 7.20269V6.66715C153 6.38143 153.122 6.18483 153.418 6.1314C153.714 6.05982 154.115 6.00639 154.551 6.00639C155.126 6.00639 155.527 6.14914 155.806 6.43486C156.381 6.18483 157.339 5.89932 158.594 5.89932C161.696 5.89932 163.247 7.43497 163.247 9.97073C163.247 11.9885 162.149 13.2386 160.424 13.6671L162.306 16.7029C162.585 17.1493 162.794 17.2921 163.508 17.328C163.839 17.3457 164.031 17.5244 163.996 17.8458Z" fill="#0F4C6F"/>
<mask id="mask1" mask-type="alpha" maskUnits="userSpaceOnUse" x="166" y="14" width="4" height="5">
<path fill-rule="evenodd" clip-rule="evenodd" d="M166.064 14.9424H169.813V18.8992H166.064V14.9424Z" fill="white"/>
</mask>
<g mask="url(#mask1)">
<path fill-rule="evenodd" clip-rule="evenodd" d="M166.064 16.9206C166.064 15.7941 166.897 14.9424 167.938 14.9424C169.006 14.9424 169.813 15.7941 169.813 16.9206C169.813 18.0472 169.006 18.8992 167.938 18.8992C166.897 18.8992 166.064 18.0472 166.064 16.9206Z" fill="#28D8A3"/>
</g>
</svg>
